<svg xmlns="http://www.w3.org/2000/svg" width="127" height="64" viewBox="0 0 127 64" fill="none"><path d="M77.2146 27.0459H77.0864L77.0464 27.1661L74.6509 34.4966L72.1754 27.1661L72.1353 27.0459H72.0071H70.7173H70.541V27.2222V36.155V36.3312H70.7173H71.5264H71.7027V36.155V29.3051L74.034 36.2111L74.0741 36.3312H74.2023H75.0755H75.1957L75.2358 36.2111L77.5591 29.2971V36.155V36.3312H77.7273H78.5525H78.7288V36.155V27.2222V27.0459H78.5525H77.2146Z" fill="white"></path><path d="M82.6938 30.5466C83.7433 30.5466 83.9596 31.3718 83.9596 32.0688C83.9596 32.1088 83.9596 32.1729 83.9516 32.229V32.237H81.2757C81.3879 31.2035 81.9247 30.5466 82.6938 30.5466ZM82.7418 29.4971C81.0514 29.4971 80.082 30.8029 80.082 33.0782C80.082 35.3054 81.0835 36.427 83.0543 36.427C83.567 36.427 84.1038 36.3629 84.7367 36.2347L84.8729 36.2027V36.0585V35.3935V35.1852L84.6646 35.2253C84.1919 35.3214 83.5991 35.3855 83.2306 35.3855C81.8926 35.3855 81.2918 34.7446 81.2517 33.2785H84.8969H85.0572L85.0652 33.1183C85.0652 33.0942 85.1052 32.5014 85.1052 32.3091C85.1052 30.4985 84.264 29.4971 82.7418 29.4971Z" fill="white"></path><path d="M90.1129 35.1055C89.7524 35.2737 89.3198 35.3859 88.9993 35.3859C87.6934 35.3859 87.0365 34.5847 87.0365 33.0145C87.0365 31.4683 87.7655 30.5389 88.9753 30.5389C89.3999 30.5389 89.8725 30.6992 90.1129 30.9155V35.1055ZM90.2891 26.7896H90.1129V26.9658V29.7939C89.7043 29.6096 89.2717 29.5055 88.8951 29.5055C86.676 29.5055 85.8828 31.3401 85.8828 33.0626C85.8828 35.2096 86.9724 36.4434 88.8631 36.4434C89.3037 36.4434 89.8405 36.2832 90.209 36.0909L90.2411 36.2111L90.2811 36.3393H90.4173H91.0582H91.2345V36.163V26.9658V26.7896H91.0582H90.2891Z" fill="white"></path><path d="M93.4136 27.334C92.9569 27.334 92.7246 27.5984 92.7246 28.1271C92.7246 28.6559 92.9489 28.9123 93.4056 28.9123C93.8703 28.9123 94.1106 28.6399 94.1106 28.1191C94.1106 27.5904 93.8783 27.334 93.4136 27.334Z" fill="white"></path><path d="M93.02 29.6016H92.8438V29.7778V36.155V36.3312H93.02H93.7971H93.9654V36.155V29.7778V29.6016H93.7971H93.02Z" fill="white"></path><path d="M98.5803 33.2144V34.8968C98.2759 35.1211 97.6029 35.3855 97.2344 35.3855C96.4893 35.3855 96.1689 35.0731 96.1689 34.328C96.1689 33.7352 96.4974 33.4067 97.2104 33.3025C97.4667 33.2625 98.2278 33.2304 98.5803 33.2144ZM99.1572 29.9938C98.8367 29.6733 98.2759 29.4971 97.611 29.4971C97.0902 29.4971 96.4813 29.6253 96.1449 29.7454L96.0327 29.7855V29.9057V30.5786V30.827L96.265 30.7469C96.5855 30.6347 97.1383 30.5386 97.5148 30.5386C98.2919 30.5386 98.5803 30.827 98.5803 31.6201V32.205C98.2038 32.229 97.2504 32.2851 96.8338 32.3251C95.6882 32.4373 95.0312 33.2144 95.0312 34.4482C95.0312 35.6499 95.8004 36.435 97.0021 36.435C97.611 36.435 98.0356 36.3149 98.7085 35.9543L98.7886 36.2107L98.8287 36.3309H98.9569H99.5257H99.702V36.1546V31.8525C99.702 30.7789 99.4856 30.3383 99.1572 29.9938Z" fill="white"></path><path d="M62.2488 33.6391L60.7826 36.1547H59.5569L61.688 32.7498L59.8052 29.6734H61.3274L62.5933 31.8605L63.843 29.6734H64.9807L63.1701 32.6777L65.2851 36.1547H63.7549L62.2488 33.6391ZM58.7157 36.1547H57.562L57.4499 35.7461C56.5766 36.1387 56.168 36.2508 55.7434 36.2508C54.6699 36.2508 53.9809 35.4817 53.9809 34.3281C53.9809 33.1664 54.5898 32.5175 55.7755 32.3893C56.2802 32.3412 57.3617 32.3172 57.3617 32.3172V31.6442C57.3617 30.9072 57.0573 30.6027 56.2962 30.6027C55.8556 30.6027 55.439 30.6668 54.9423 30.803V29.8416C55.5591 29.6493 56.0719 29.5612 56.6808 29.5612C57.3617 29.5612 57.9466 29.7375 58.267 30.0659C58.6115 30.4104 58.7237 30.8671 58.7237 31.8365V36.1547H58.7157ZM53.9328 30.5707H52.6029V36.1547H51.249V30.5707H50.4638V29.8016L51.249 29.6734V28.9123C51.249 27.5343 51.8658 26.8774 53.1637 26.8774C53.5162 26.8774 54.061 26.9254 54.3574 26.9895V27.9028C54.1571 27.8788 53.8126 27.8548 53.6124 27.8548C52.8513 27.8548 52.6109 28.1192 52.6109 28.9043V29.6734H53.9408V30.5707H53.9328ZM49.6146 31.0434C49.2701 30.8511 49.0458 30.7629 48.5651 30.7629C48.2126 30.7629 47.7319 30.8991 47.5236 31.1395V36.1547H46.1697V29.6734H47.3233L47.4355 30.2823C47.7159 29.9298 48.2687 29.5772 48.7654 29.5772C49.1419 29.5772 49.3743 29.6894 49.6146 29.8576V31.0434ZM43.7662 28.7761C43.2214 28.7761 42.941 28.4957 42.941 27.9509C42.941 27.4061 43.2294 27.1177 43.7742 27.1177C44.319 27.1177 44.5994 27.3981 44.5994 27.9429C44.5994 28.4877 44.311 28.7761 43.7662 28.7761ZM44.4472 36.1547H43.0932V29.6734H44.4472V36.1547ZM41.3948 36.1547H40.2411L40.129 35.7461C39.2557 36.1387 38.8471 36.2508 38.4225 36.2508C37.349 36.2508 36.66 35.4817 36.66 34.3281C36.66 33.1664 37.2689 32.5175 38.4546 32.3893C38.9593 32.3412 40.0409 32.3172 40.0409 32.3172V31.6442C40.0409 30.9072 39.7364 30.6027 38.9753 30.6027C38.5347 30.6027 38.1181 30.6668 37.6214 30.803V29.8416C38.2383 29.6493 38.751 29.5612 39.3599 29.5612C40.0409 29.5612 40.6257 29.7375 40.9381 30.0659C41.2826 30.4104 41.3948 30.8671 41.3948 31.8365V36.1547ZM36.5078 28.2553H33.2551V30.9873H35.8669V32.0288H33.2631V36.1547H31.8451V27.2139H36.5078V28.2553ZM48.1245 12C37.0686 12 28.0957 20.9649 28.0957 32.0288C28.0957 43.0927 37.0686 52.0575 48.1245 52.0575C59.1884 52.0575 68.1532 43.0927 68.1532 32.0288C68.1532 20.9649 59.1884 12 48.1245 12Z" fill="white"></path><path d="M55.3574 34.1922C55.3574 34.8732 55.734 35.2177 56.471 35.2177C56.7594 35.2177 57.0559 35.1135 57.3603 34.9773V33.1187C57.3603 33.1187 56.5912 33.1427 56.2868 33.1908C55.6619 33.2789 55.3574 33.6394 55.3574 34.1922Z" fill="white"></path><path d="M38.0391 34.1922C38.0391 34.8732 38.4156 35.2177 39.1527 35.2177C39.4411 35.2177 39.7375 35.1135 40.0419 34.9773V33.1187C40.0419 33.1187 39.2728 33.1427 38.9684 33.1908C38.3435 33.2789 38.0391 33.6394 38.0391 34.1922Z" fill="white"></path></svg>