<svg xmlns="http://www.w3.org/2000/svg" width="127" height="64" viewBox="0 0 127 64" fill="none"><path d="M56.5912 34.7064C56.5912 39.2108 53.0674 42.5301 48.7429 42.5301C44.4183 42.5301 40.8945 39.2108 40.8945 34.7064C40.8945 30.1703 44.4183 26.8828 48.7429 26.8828C53.0674 26.8828 56.5912 30.1703 56.5912 34.7064ZM53.1555 34.7064C53.1555 31.8916 51.1132 29.9657 48.7429 29.9657C46.3725 29.9657 44.3302 31.8916 44.3302 34.7064C44.3302 37.493 46.3725 39.4472 48.7429 39.4472C51.1132 39.4472 53.1555 37.4895 53.1555 34.7064Z" fill="white"></path><path d="M73.5228 34.7064C73.5228 39.2108 69.999 42.5301 65.6745 42.5301C61.35 42.5301 57.8262 39.2108 57.8262 34.7064C57.8262 30.1738 61.35 26.8828 65.6745 26.8828C69.999 26.8828 73.5228 30.1703 73.5228 34.7064ZM70.0872 34.7064C70.0872 31.8916 68.0449 29.9657 65.6745 29.9657C63.3041 29.9657 61.2618 31.8916 61.2618 34.7064C61.2618 37.493 63.3041 39.4472 65.6745 39.4472C68.0449 39.4472 70.0872 37.4895 70.0872 34.7064Z" fill="white"></path><path d="M89.7502 27.3555V41.4013C89.7502 47.1791 86.3428 49.5389 82.3146 49.5389C78.5227 49.5389 76.2405 47.0027 75.3798 44.9287L78.371 43.6835C78.9036 44.9569 80.2087 46.4595 82.311 46.4595C84.8895 46.4595 86.4874 44.8687 86.4874 41.874V40.7488H86.3675C85.5985 41.6976 84.117 42.5265 82.2475 42.5265C78.3357 42.5265 74.752 39.1191 74.752 34.7347C74.752 30.3184 78.3357 26.8828 82.2475 26.8828C84.1135 26.8828 85.595 27.7117 86.3675 28.6324H86.4874V27.359H89.7502V27.3555ZM86.7308 34.7347C86.7308 31.9798 84.893 29.9657 82.5544 29.9657C80.1841 29.9657 78.1982 31.9798 78.1982 34.7347C78.1982 37.4613 80.1841 39.4472 82.5544 39.4472C84.893 39.4472 86.7308 37.4613 86.7308 34.7347Z" fill="white"></path><path d="M95.1283 19.1226V42.0502H91.7773V19.1226H95.1283Z" fill="white"></path><path d="M108.186 37.2815L110.852 39.0593C109.992 40.3326 107.918 42.5267 104.334 42.5267C99.8895 42.5267 96.5703 39.091 96.5703 34.703C96.5703 30.0505 99.9178 26.8794 103.949 26.8794C108.009 26.8794 109.995 30.1104 110.644 31.8565L111.001 32.7454L100.542 37.0769C101.343 38.6466 102.588 39.4473 104.334 39.4473C106.084 39.4473 107.297 38.5866 108.186 37.2815ZM99.9777 34.4667L106.969 31.5637C106.584 30.5866 105.427 29.9058 104.066 29.9058C102.32 29.9058 99.8895 31.4473 99.9777 34.4667Z" fill="white"></path><path d="M28.2116 32.6714V29.3522H39.3968C39.5061 29.9306 39.5626 30.6149 39.5626 31.3557C39.5626 33.846 38.8818 36.9253 36.6878 39.1193C34.5538 41.3416 31.8271 42.5267 28.2151 42.5267C21.5203 42.5267 15.8906 37.0735 15.8906 30.3786C15.8906 23.6837 21.5203 18.2305 28.2151 18.2305C31.9188 18.2305 34.5573 19.6837 36.5396 21.5779L34.1975 23.9201C32.776 22.5867 30.85 21.5497 28.2116 21.5497C23.3227 21.5497 19.4991 25.4897 19.4991 30.3786C19.4991 35.2675 23.3227 39.2075 28.2116 39.2075C31.3827 39.2075 33.1887 37.9342 34.3456 36.7772C35.2839 35.8389 35.9012 34.4985 36.1446 32.6678L28.2116 32.6714Z" fill="white"></path></svg>