<svg xmlns="http://www.w3.org/2000/svg" width="127" height="64" viewBox="0 0 127 64" fill="none"><mask id="mask0_2228_4643" style="mask-type:luminance" maskUnits="userSpaceOnUse" x="21" y="15" width="85" height="34"><path d="M21.5469 15.5H105.381V48.3677H21.5469V15.5Z" fill="white"></path></mask><g mask="url(#mask0_2228_4643)"><path d="M58.2715 15.5H65.9788V17.0201H63.0089V24.9839H61.2414V17.0201H58.2864V15.5H58.2715ZM68.6584 19.1632H68.7021C69.1656 18.4391 69.8464 18.0051 70.8026 18.0051C72.266 18.0051 73.1493 18.9028 73.1493 20.3793V24.9982H71.5271V20.6546C71.5271 19.8586 71.0493 19.3517 70.223 19.3517C69.3249 19.3517 68.6877 20.0465 68.6877 21.0023V24.9839H67.0651V15.5H68.6877V18.0483C68.6733 18.2367 68.6733 18.758 68.6584 19.1632ZM74.2216 21.5964C74.2216 19.5694 75.5832 18.0056 77.5969 18.0056C78.5963 18.0056 79.3645 18.3533 79.9436 18.9609C80.61 19.6562 80.9291 20.7275 80.9142 21.9873H75.8294C75.9455 23.1602 76.5682 23.9567 77.6981 23.9567C78.4807 23.9567 78.9878 23.6234 79.2047 23.0591H80.7842C80.4507 24.2752 79.3496 25.1872 77.6838 25.1872C75.5252 25.1872 74.2216 23.6091 74.2216 21.5964ZM75.8586 20.974H79.2483C79.1903 19.8591 78.5819 19.1786 77.5969 19.1786C76.5395 19.1637 76.0035 19.9027 75.8586 20.974ZM58.793 27.0833H60.5462V30.8913H64.7472V27.0833H66.5148V36.5671H64.7472V32.3678H60.5462V36.5671H58.793V27.0833ZM72.3092 35.6843H72.2804C71.8313 36.278 71.2229 36.7269 70.1362 36.7269C68.8033 36.7269 67.8188 36.032 67.8188 34.7142C67.8188 33.1797 68.9919 32.8033 70.614 32.6148C71.7296 32.47 72.2948 32.2964 72.2948 31.6884C72.2948 31.1091 71.8888 30.7039 71.078 30.7039C70.1799 30.7039 69.7308 31.1234 69.6871 31.8039H68.1518C68.2099 30.6458 69.1229 29.5889 71.0642 29.5889C71.8462 29.5889 72.4402 29.7045 72.8893 29.9792C73.5264 30.3562 73.8599 31.0079 73.8599 31.92V35.4964C73.8599 36.0613 73.9611 36.3504 74.1204 36.4516V36.5677H72.5414C72.4258 36.4085 72.339 36.1476 72.3102 35.6843H72.3092ZM72.3384 34.0918V33.078C72.0199 33.2809 71.5122 33.4257 71.0056 33.5269C70.0057 33.7154 69.441 33.9182 69.441 34.6711C69.441 35.3952 69.9913 35.6119 70.6146 35.6119C71.7296 35.6263 72.3384 34.8591 72.3384 34.0918ZM76.9161 30.9786H76.9593C77.394 30.0953 78.046 29.647 78.9154 29.647C79.1034 29.647 79.234 29.6613 79.3496 29.705V31.1527H79.292C79.146 31.1112 78.9947 31.0917 78.8429 31.0947C77.7706 31.0803 76.9742 31.8044 76.9742 33.1217V36.5389H75.3515V29.7338H76.9161V30.9791V30.9786ZM79.8423 29.7615H81.5374L82.5368 32.9322C82.8266 33.8443 83.1164 35.2201 83.1164 35.2201H83.1596C83.1596 35.2201 83.4206 33.8592 83.7248 32.9322L84.7535 29.761H86.4049L84.0002 36.5666H82.2326L79.8423 29.761V29.7615ZM91.1131 35.6843H91.0838C90.6347 36.278 90.0263 36.7269 88.9401 36.7269C87.6072 36.7269 86.6222 36.032 86.6222 34.7142C86.6222 33.1797 87.7953 32.8033 89.4179 32.6148C90.5335 32.47 91.0987 32.2964 91.0987 31.6884C91.0987 31.1091 90.6927 30.7039 89.8814 30.7039C88.9833 30.7039 88.5342 31.1234 88.491 31.8039H86.9552C87.0133 30.6458 87.9258 29.5889 89.867 29.5889C90.6496 29.5889 91.2436 29.7045 91.6926 29.9792C92.3298 30.3562 92.6633 31.0079 92.6633 31.92V35.4964C92.6633 36.0613 92.7645 36.3504 92.9238 36.4516V36.5677H91.3592C91.2287 36.4085 91.1418 36.1476 91.1131 35.6843ZM91.1418 34.0918V33.078C90.8233 33.2809 90.3161 33.4257 89.809 33.5269C88.8096 33.7154 88.2444 33.9182 88.2444 34.6711C88.2444 35.3952 88.7952 35.6119 89.4179 35.6119C90.5335 35.6263 91.1418 34.8591 91.1418 34.0918ZM95.7195 30.9786H95.7632C96.1979 30.0953 96.8499 29.647 97.7188 29.647C97.9073 29.647 98.0373 29.6613 98.1535 29.705V31.1527H98.0954C97.9494 31.1112 97.7981 31.0916 97.6463 31.0947C96.5745 31.0803 95.7775 31.8044 95.7775 33.1217V36.5389H94.1549V29.7338H95.7195V30.9791V30.9786ZM98.6606 33.1787C98.6606 31.0069 99.8773 29.5879 101.616 29.5879C102.557 29.5879 103.267 30.0368 103.702 30.7465H103.731C103.694 30.2744 103.675 29.8011 103.673 29.3275V27.0833H105.296V36.5671H103.731V35.5678H103.702C103.282 36.3638 102.543 36.7844 101.616 36.7844C99.8193 36.7844 98.6606 35.3937 98.6606 33.1787ZM103.745 33.1787C103.745 31.8178 103.151 30.8477 101.949 30.8477C100.848 30.8477 100.298 31.8321 100.298 33.1643C100.298 34.5252 100.848 35.4522 101.949 35.4522C103.151 35.4522 103.745 34.5109 103.745 33.1787ZM65.7615 46.8481H65.7034C65.0951 47.8762 64.0664 48.3682 62.8928 48.3682C61.56 48.3682 60.4444 47.8618 59.6624 47.0221C58.8511 46.1388 58.4164 44.9078 58.4164 43.4601C58.4164 41.9251 58.9235 40.5929 59.8505 39.6957C60.6186 38.9424 61.6617 38.494 63.0089 38.494C65.3263 38.494 66.674 39.7245 67.0219 41.5199H65.24C64.9789 40.6366 64.2981 39.9849 63.0377 39.9849C61.1109 39.9849 60.2127 41.505 60.2127 43.4601C60.2127 45.4871 61.3282 46.9061 63.0377 46.9061C64.6311 46.9061 65.4717 45.8199 65.4861 44.6182V44.5026H63.197V43.1273H67.1812V48.1653H65.9932L65.7615 46.8481ZM72.8019 47.2676H72.7731C72.3241 47.8613 71.7152 48.3102 70.629 48.3102C69.2961 48.3102 68.3111 47.6153 68.3111 46.297C68.3111 44.7625 69.4847 44.3866 71.1068 44.1981C72.2223 44.0533 72.787 43.8797 72.787 43.2711C72.787 42.6923 72.3816 42.2866 71.5708 42.2866C70.6726 42.2866 70.223 42.7067 70.1799 43.3872H68.644C68.7021 42.2286 69.6152 41.1717 71.5559 41.1717C72.3384 41.1717 72.9324 41.2878 73.3815 41.5625C74.0186 41.9395 74.3521 42.5907 74.3521 43.5033V47.0792C74.3521 47.6441 74.4533 47.9337 74.6126 48.0349V48.1509H73.048C72.918 47.9917 72.8168 47.7309 72.8019 47.2676ZM72.8163 45.6751V44.6613C72.4977 44.8642 71.9906 45.009 71.4834 45.1102C70.484 45.2987 69.9194 45.501 69.9194 46.2539C69.9194 46.978 70.4691 47.1952 71.0924 47.1952C72.2079 47.2096 72.8163 46.4423 72.8163 45.6751ZM75.5976 46.9194L78.3065 43.5895C78.6544 43.1987 79.292 42.5907 79.292 42.5907V42.547C79.292 42.547 78.437 42.6194 77.9155 42.6194H75.8437V41.316H81.1896V42.4315L78.4951 45.7614C78.1184 46.1958 77.4083 46.8475 77.4083 46.8475V46.8907C77.4083 46.8907 78.3214 46.8326 78.8861 46.8326H81.3632V48.1648H75.5976V46.9194ZM82.0009 44.7625C82.0009 42.7355 83.3625 41.1717 85.3762 41.1717C86.3756 41.1717 87.1438 41.5194 87.7228 42.1274C88.3893 42.8223 88.7084 43.8941 88.6935 45.1538H83.6087C83.7248 46.3263 84.3475 47.1228 85.4774 47.1228C86.26 47.1228 86.7671 46.79 86.9845 46.2251H88.5635C88.23 47.4412 87.1294 48.3533 85.463 48.3533C83.3045 48.3533 82.0009 46.7751 82.0009 44.7625ZM83.6379 44.1401H87.0276C86.9696 43.0256 86.3612 42.3447 85.3762 42.3447C84.3188 42.3303 83.7685 43.0688 83.6379 44.1401ZM89.2874 41.3458H90.3305V39.1735H91.9244V41.3458H93.286V42.4602H91.9244V46.2688C91.9244 46.7607 92.1849 46.9056 92.6484 46.9056C92.8076 46.9056 93.0399 46.8768 93.1699 46.8475H93.2423V48.1073C92.9818 48.1653 92.6052 48.209 92.1705 48.209C91.0694 48.209 90.3161 47.8176 90.3161 46.6159V42.4458H89.2731V41.3458H89.2874ZM93.8944 41.3458H94.9374V39.1735H96.5308V41.3458H97.893V42.4602H96.5308V46.2688C96.5308 46.7607 96.7918 46.9056 97.2553 46.9056C97.4146 46.9056 97.6463 46.8768 97.7768 46.8475H97.8493V48.1073C97.5883 48.1653 97.2116 48.209 96.7774 48.209C95.6763 48.209 94.9231 47.8176 94.9231 46.6159V42.4458H93.88V41.3458H93.8944ZM98.6894 44.7625C98.6894 42.7355 100.051 41.1717 102.065 41.1717C103.065 41.1717 103.832 41.5194 104.412 42.1274C105.078 42.8223 105.397 43.8941 105.382 45.1538H100.298C100.413 46.3263 101.037 47.1228 102.166 47.1228C102.948 47.1228 103.456 46.79 103.673 46.2251H105.252C104.919 47.4412 103.818 48.3533 102.152 48.3533C99.9935 48.3533 98.6894 46.7751 98.6894 44.7625ZM100.326 44.1401H103.716C103.659 43.0256 103.05 42.3447 102.065 42.3447C101.007 42.3303 100.457 43.0688 100.326 44.1401Z" fill="white"></path><path d="M52.5341 17.2374V46.4711H23.2851V17.2374H52.5341ZM54.2723 15.5H21.5469V48.2085H54.2723V15.5Z" fill="white"></path></g></svg>