<svg xmlns="http://www.w3.org/2000/svg" width="127" height="64" viewBox="0 0 127 64" fill="none"><path d="M98.045 35.1434C98.045 36.1954 98.0272 37.4078 97.5815 38.3885C96.7613 40.1893 94.9247 40.9917 93.0347 40.9917C91.43 40.9917 89.7539 40.3855 88.8268 39.0125C88.0601 37.8714 88.0422 36.4806 88.0422 35.1434V24.7661H86.4375V35.6961C86.4375 39.9219 88.8089 42.3111 93.0704 42.3111C97.207 42.3111 99.6854 39.7971 99.6854 35.6961V24.7661H98.0629V35.1434H98.045Z" fill="white"></path><path d="M108.265 32.5758L116.181 24.7661H114.095L106.41 32.6828L114.862 42.0615H117.001L108.265 32.5758Z" fill="white"></path><path d="M106.303 24.7661H104.752V42.0437H106.303V24.7661Z" fill="white"></path><path d="M73.7781 30.1155C72.0307 30.2403 69.9089 30.8287 69.1244 32.5939C68.4647 34.0381 68.9817 35.5894 70.3547 37.3011C71.2284 38.3709 72.0307 39.3872 72.2625 39.6368C71.6384 39.7617 70.2655 39.726 68.8926 39.4764H68.8747C68.5538 39.4229 68.2507 39.3516 67.9476 39.2624C67.163 39.0128 66.9491 38.7097 66.9491 38.7097L66.8421 38.7988L66.9491 38.7275C66.432 38.7988 65.9862 39.1733 65.6831 39.5655C65.38 39.9756 65.0591 40.7423 65.3265 41.1346C65.5583 41.4555 66.0219 41.6338 66.8956 41.6517C68.8391 41.7408 72.4586 42.2579 73.2075 42.3471C74.2417 42.454 74.9371 41.5982 75.151 41.1168C75.4185 40.457 75.151 39.726 74.7944 39.3337C73.0649 37.3367 70.6578 35.1614 71.5315 33.3427C71.9237 32.5047 73.8672 32.6652 74.5091 32.8613C75.8821 33.2714 76.5596 32.7722 76.8627 31.8628C77.041 31.2566 76.6844 29.9015 73.7781 30.1155Z" fill="white"></path><path d="M35.0333 22.0383C35.2116 21.5569 35.0512 20.9685 34.748 20.7367C33.7495 19.9878 32.8402 20.3979 32.1626 21.1468C31.3603 22.0204 30.3261 23.9105 29.8982 24.6237C25.8864 31.1139 22.8196 38.0499 22.8196 38.0499C22.8196 38.0499 21.7497 34.8226 21.6071 32.2551C21.4644 29.8301 21.3575 27.53 21.2505 26.3889C21.2148 25.9431 21.0187 25.2299 20.2342 24.9624C19.6279 24.7663 18.7364 24.6772 18.1123 24.909C18.0589 25.6935 18.0232 26.0501 17.7023 26.9773C17.3813 27.8866 15.313 31.9163 14.9564 32.5582C13.1555 35.7676 10.7841 39.7616 10.6414 40.0112C10.16 40.9028 9.48247 42.1331 10.6414 42.561C11.8004 42.9889 12.7989 42.7571 13.2982 42.0261C13.3873 41.8834 13.53 41.616 13.53 41.616C13.53 41.616 13.1912 41.3485 13.9222 39.6725C14.1362 39.2267 14.3858 38.7096 14.6711 38.1391C14.7246 38.0321 14.7781 37.9251 14.8494 37.8181C14.9207 37.6933 14.992 37.5507 15.0455 37.408C16.2223 35.0722 17.8092 32.0589 19.2178 29.42C19.2178 31.0426 19.3248 32.6473 19.5566 34.2521C19.8776 36.9444 20.5373 38.0856 20.7869 40.243C20.7334 41.6873 20.876 41.9548 21.9459 42.24C22.9265 42.5075 23.5149 42.24 23.8894 41.3307C25.3158 37.7111 29.4346 29.42 32.9293 24.9268C33.2503 24.4454 34.6411 23.0903 35.0333 22.0383Z" fill="white"></path><path d="M67.5552 36.9799C68.2506 36.5876 68.518 35.8031 67.9653 35.1434C67.4126 34.4837 66.3249 34.5372 65.8435 34.8403C65.4334 35.0899 64.9698 35.3395 63.5612 35.4108C62.2418 35.4822 61.7069 34.9116 60.8867 34.9116C59.9595 34.9116 59.585 35.5713 58.4261 36.9977C57.8377 37.7288 56.5182 39.5118 55.912 39.5118C55.3949 39.5118 55.1988 38.0676 55.1988 36.1419C55.1988 35.2682 54.8065 34.555 53.8259 34.6263C53.0057 34.6798 52.863 35.7496 52.4351 36.2667C51.1513 37.7644 50.0993 39.2444 49.5822 39.2444C48.9403 39.2444 48.6729 37.8001 48.6729 36.7125C48.6729 36.7125 48.869 34.9829 47.3 34.6798C46.6224 34.555 45.9092 34.9294 45.9092 34.9294C45.9627 35.0542 45.9983 35.1969 45.9805 35.3395C45.7844 36.0706 44.4114 37.1047 44.4114 37.1047C42.9494 38.1745 40.043 40.1359 37.4041 40.2785C34.3373 40.439 33.8024 38.656 33.6954 37.9427C36.3343 36.9799 38.0995 35.8566 39.2406 34.9829C40.4531 34.0379 41.2555 33.0037 41.1842 31.9874C41.095 30.6145 39.8469 30.1152 38.8484 30.1152C36.7087 30.1152 33.1783 31.0424 31.4666 35.714C31.0922 35.8388 30.2363 35.8388 29.7727 35.714C29.1487 35.5535 29.1665 35.286 29.1665 35.286C28.5959 35.4287 28.3463 35.714 28.1324 36.2132C27.8114 37.0156 28.2393 37.711 28.8991 38.0676C29.3805 38.335 30.1293 38.4955 31.1992 38.3707C31.3418 39.7971 32.2868 42.5608 37.315 42.3468C41.309 42.1864 45.9805 38.8164 46.3906 38.5668C46.5689 39.387 47.1216 42.3468 48.8334 42.3468C50.866 42.3468 52.97 39.1909 52.97 39.1909C52.97 39.1909 53.5049 42.3468 55.5554 42.3468C57.2671 42.3468 59.4067 39.601 59.9417 38.9591C60.3874 38.4242 61.2433 37.4257 61.7247 37.4257C62.1883 37.3365 63.0976 38.1389 65.7187 37.604C65.79 37.5683 66.9846 37.3009 67.5552 36.9799ZM38.3135 32.3975C38.5631 32.6471 38.0282 33.1999 37.5824 33.4852C36.3165 34.3054 35.0505 34.7868 34.1412 35.1077C35.1218 33.1107 37.9747 31.9161 38.3135 32.3975Z" fill="white"></path></svg>