<svg xmlns="http://www.w3.org/2000/svg" width="127" height="64" viewBox="0 0 127 64" fill="none"><path fill-rule="evenodd" clip-rule="evenodd" d="M106.96 25.4914V28.1116C105.587 27.5993 104.364 27.3392 103.294 27.3392C102.661 27.3392 102.155 27.455 101.777 27.6802C101.397 27.907 101.204 28.1845 101.204 28.5144C101.204 28.9522 101.632 29.3408 102.495 29.6881L104.988 30.8871C107.003 31.8372 108.002 33.0981 108.002 34.681C108.002 35.9974 107.473 37.0489 106.403 37.8261C105.341 38.6112 103.91 38.9998 102.131 38.9998C101.31 38.9998 100.572 38.9649 99.9175 38.8919C99.2614 38.8221 98.5091 38.6794 97.6733 38.4748V35.7325C99.2053 36.2448 100.599 36.5049 101.855 36.5049C103.354 36.5049 104.1 36.0751 104.1 35.2091C104.1 34.7777 103.795 34.4304 103.174 34.1576L100.407 32.9918C99.3849 32.535 98.6262 31.9815 98.1305 31.3265C97.6412 30.6651 97.3926 29.907 97.3926 29.041C97.3926 27.8277 97.9091 26.8523 98.9294 26.1084C99.9576 25.3709 101.324 25.0029 103.022 25.0029C103.573 25.0029 104.209 25.0505 104.913 25.1409C105.623 25.2361 106.305 25.3519 106.963 25.4946L106.96 25.4914Z" fill="white"></path><path fill-rule="evenodd" clip-rule="evenodd" d="M28.5656 25.4917V28.1118C27.1924 27.5995 25.9716 27.3394 24.9017 27.3394C24.2664 27.3394 23.7627 27.4552 23.3841 27.6804C23.004 27.9072 22.8115 28.1848 22.8115 28.5147C22.8115 28.9524 23.2462 29.341 24.1076 29.6883L26.6005 30.8874C28.6073 31.8374 29.6083 33.0983 29.6083 34.6812C29.6083 35.9976 29.0757 37.0492 28.0137 37.8263C26.9438 38.6114 25.5209 39 23.7355 39C22.9141 39 22.1746 38.9651 21.5185 38.8921C20.8624 38.8224 20.1181 38.6796 19.2775 38.475V35.7328C20.8143 36.245 22.2099 36.5052 23.4579 36.5052C24.9562 36.5052 25.7022 36.0753 25.7022 35.2094C25.7022 34.778 25.399 34.4306 24.7846 34.1578L22.0174 32.9921C20.9891 32.5353 20.2288 31.9818 19.7411 31.3267C19.2422 30.6622 19 29.904 19 29.0381C19 27.8247 19.5117 26.8493 20.54 26.1055C21.5602 25.3695 22.9286 25 24.6258 25C25.184 25 25.8112 25.0476 26.5235 25.138C27.2277 25.2331 27.9111 25.3489 28.5656 25.4917Z" fill="white"></path><path fill-rule="evenodd" clip-rule="evenodd" d="M31.4219 25.2456H35.482V38.7539H31.4219V25.2456Z" fill="white"></path><path fill-rule="evenodd" clip-rule="evenodd" d="M48.5572 25.2456V27.742H42.5272V30.7381H47.7583V32.9887H42.5272V36.1338H48.6807V38.7539H38.6211V25.2456H48.5572Z" fill="white"></path><path fill-rule="evenodd" clip-rule="evenodd" d="M67.506 25.2456V38.7539H63.7169V29.8451L59.7852 38.8776H57.4447L53.6637 29.8451V38.7539H50.9238V25.2456H55.8775L59.2606 33.5152L62.7994 25.2456H67.506Z" fill="white"></path><path fill-rule="evenodd" clip-rule="evenodd" d="M80.5764 25.2456V27.742H74.5785V30.7381H79.8096V32.9887H74.5785V36.1338H80.6999V38.7539H70.6387V25.2456H80.5764Z" fill="white"></path><path fill-rule="evenodd" clip-rule="evenodd" d="M94.8189 25.2456V38.7539H90.5134L85.6833 30.0894V38.7539H82.9434V25.2456H87.374L92.0806 33.7611V25.2456H94.8189Z" fill="white"></path></svg>