<svg xmlns="http://www.w3.org/2000/svg" width="127" height="64" viewBox="0 0 127 64" fill="none"><path d="M23.5982 38.189C23.8343 38.189 24.0591 38.1328 24.2727 38.0091L26.735 36.5925C27.2297 36.3114 27.8031 36.1878 28.3764 36.2552C31.3671 36.6038 33.4583 37.1659 34.0767 37.3458C34.2003 37.3795 34.3465 37.3346 34.4252 37.2334C34.5264 37.1097 34.65 36.9073 34.7512 36.615C34.8412 36.3339 34.8524 36.0978 34.8412 35.9292C34.8299 35.7943 34.74 35.6706 34.6051 35.6369C33.6382 35.3558 29.3546 34.1978 23.5982 34.1978C17.8417 34.1978 13.5582 35.3558 12.5913 35.6369C12.4563 35.6706 12.3664 35.7943 12.3552 35.9292C12.3439 36.0866 12.3552 36.3227 12.4451 36.615C12.535 36.9073 12.67 37.1097 12.7712 37.2334C12.8499 37.3346 12.996 37.3795 13.1197 37.3458C13.7381 37.1659 15.8405 36.6038 18.8199 36.2552C19.3933 36.1878 19.9667 36.3114 20.4614 36.5925L22.9236 38.0091C23.1372 38.1328 23.3733 38.189 23.5982 38.189Z" fill="white"></path><path d="M19.4951 30.2177C19.63 30.4538 19.8436 30.6112 20.0909 30.6786C20.3383 30.7461 20.5969 30.7123 20.833 30.5774C21.0691 30.4425 21.2265 30.2289 21.2939 29.9816C21.3614 29.7342 21.3277 29.4756 21.1927 29.2395L18.9779 25.4056C18.9104 25.282 18.7643 25.237 18.6293 25.2482C18.4495 25.2595 18.2021 25.3494 17.9098 25.5181C17.6175 25.6867 17.4151 25.8554 17.3139 26.0015C17.2352 26.114 17.2127 26.2601 17.2802 26.3838L19.4951 30.2177Z" fill="white"></path><path d="M17.4692 32.9613C17.7053 33.0962 17.9752 33.1187 18.2113 33.0625C18.4586 32.995 18.6722 32.8376 18.8072 32.6015C18.9421 32.3654 18.9646 32.0956 18.9083 31.8595C18.8521 31.6234 18.6835 31.3985 18.4474 31.2636L14.6135 29.0487C14.4898 28.9813 14.3437 29.0038 14.2313 29.0825C14.0851 29.1836 13.9165 29.386 13.7478 29.6783C13.5792 29.9707 13.4892 30.218 13.478 30.3979C13.4667 30.5441 13.5229 30.679 13.6354 30.7464L17.4692 32.9613Z" fill="white"></path><path d="M24.5774 28.857C24.5774 29.1268 24.4649 29.3742 24.2963 29.554C24.1164 29.7339 23.8803 29.8351 23.5992 29.8351C23.3294 29.8351 23.0821 29.7227 22.9022 29.554C22.7223 29.3742 22.6211 29.1381 22.6211 28.857V24.4385C22.6211 24.2923 22.711 24.1799 22.846 24.1237C23.0034 24.045 23.2619 24 23.5992 24C23.9365 24 24.1951 24.045 24.3525 24.1237C24.4762 24.1911 24.5774 24.2923 24.5774 24.4385V28.857Z" fill="white"></path><path d="M27.7037 30.2177C27.5688 30.4538 27.3552 30.6112 27.1078 30.6786C26.8605 30.7461 26.6019 30.7123 26.3658 30.5774C26.1297 30.4425 25.9723 30.2289 25.9048 29.9816C25.8374 29.7342 25.8711 29.4756 26.006 29.2395L28.2209 25.4056C28.2883 25.282 28.4345 25.237 28.5694 25.2482C28.7493 25.2595 28.9966 25.3494 29.289 25.5181C29.5813 25.6867 29.7837 25.8554 29.8848 26.0015C29.9635 26.114 29.986 26.2601 29.9186 26.3838L27.7037 30.2177Z" fill="white"></path><path d="M29.7237 32.9613C29.4876 33.0962 29.2178 33.1187 28.9817 33.0625C28.7343 32.995 28.5207 32.8376 28.3858 32.6015C28.2509 32.3654 28.2284 32.0956 28.2846 31.8595C28.352 31.6121 28.5095 31.3985 28.7456 31.2636L32.5794 29.0487C32.7031 28.9813 32.8493 29.0038 32.9617 29.0825C33.1078 29.1836 33.2765 29.386 33.4451 29.6783C33.6138 29.9707 33.7037 30.218 33.715 30.3979C33.7262 30.5441 33.67 30.679 33.5576 30.7464L29.7237 32.9613Z" fill="white"></path><path d="M54.1831 29.9141H56.027C56.0944 29.9141 56.1507 29.959 56.1844 30.0153L58.017 34.7148L59.7934 30.0153C59.8159 29.9478 59.8833 29.9141 59.9508 29.9141H61.7609C61.8846 29.9141 61.9633 30.0377 61.9071 30.1389L57.4099 40.46C57.3874 40.5162 57.3199 40.5612 57.2637 40.5612H55.6672C55.5548 40.5612 55.4648 40.4375 55.521 40.3363L57.0613 36.7273L54.0482 30.1389C53.9808 30.0377 54.0595 29.9141 54.1831 29.9141Z" fill="white"></path><path d="M81.4051 30.9595V30.0826C81.4051 29.9926 81.4838 29.9139 81.5738 29.9139H83.204C83.2939 29.9139 83.3726 29.9926 83.3726 30.0826V37.0869C83.3726 37.1769 83.2939 37.2556 83.204 37.2556H81.5738C81.4838 37.2556 81.4051 37.1769 81.4051 37.0869V36.165C81.0566 36.7047 80.2921 37.413 79.0441 37.413C76.6606 37.413 75.4238 35.5916 75.4238 33.5566C75.4238 30.9033 77.2677 29.7678 78.9879 29.7678C80.1234 29.7565 80.9104 30.2962 81.4051 30.9595ZM77.3914 33.5679C77.3914 34.8271 78.1671 35.794 79.4151 35.794C80.6631 35.794 81.4613 34.9508 81.4613 33.6578C81.4613 32.3649 80.6856 31.3755 79.3589 31.3755C78.1109 31.3755 77.3914 32.3424 77.3914 33.5679Z" fill="white"></path><path d="M84.8438 37.0868V30.0824C84.8438 29.9924 84.9225 29.9137 85.0124 29.9137H86.6426C86.7326 29.9137 86.8113 29.9924 86.8113 30.0824V31.038C87.1935 30.3747 87.9131 29.7676 89.1386 29.7676C90.3978 29.7676 91.8032 30.3859 91.8032 33.2304V37.0868C91.8032 37.1767 91.7245 37.2554 91.6345 37.2554H90.0043C89.9143 37.2554 89.8356 37.1767 89.8356 37.0868V33.2642C89.8356 32.5783 89.667 31.3978 88.4528 31.3978C87.2385 31.3978 86.8113 32.4659 86.8113 33.4553V37.0868C86.8113 37.1767 86.7326 37.2554 86.6426 37.2554H85.0124C84.9112 37.2442 84.8438 37.1767 84.8438 37.0868Z" fill="white"></path><path d="M93.1992 37.0868V30.0824C93.1992 29.9924 93.2779 29.9137 93.3679 29.9137H94.9981C95.088 29.9137 95.1667 29.9924 95.1667 30.0824V31.038C95.549 30.3747 96.2686 29.7676 97.494 29.7676C98.7533 29.7676 100.159 30.3859 100.159 33.2304V37.0868C100.159 37.1767 100.08 37.2554 99.99 37.2554H98.3598C98.2698 37.2554 98.1911 37.1767 98.1911 37.0868V33.2642C98.1911 32.5783 98.0225 31.3978 96.8082 31.3978C95.594 31.3978 95.1667 32.4659 95.1667 33.4553V37.0868C95.1667 37.1767 95.088 37.2554 94.9981 37.2554H93.3679C93.2779 37.2442 93.1992 37.1767 93.1992 37.0868Z" fill="white"></path><path d="M110.322 29.9139H111.908C111.998 29.9139 112.076 29.9926 112.076 30.0825V31.5329C112.391 30.0937 113.628 29.5991 114.527 29.8127C114.606 29.8239 114.651 29.8914 114.651 29.9701V31.5666C114.651 31.6678 114.561 31.7465 114.449 31.724C112.785 31.3979 112.11 32.2974 112.11 33.5566C112.11 34.456 112.11 36.491 112.11 37.0869C112.11 37.1768 112.031 37.2555 111.941 37.2555H110.311C110.221 37.2555 110.143 37.1768 110.143 37.0869V30.0825C110.154 29.9926 110.233 29.9139 110.322 29.9139Z" fill="white"></path><path d="M43.3787 31.5104C42.8728 31.3417 42.603 31.2405 42.1982 31.1056C41.7822 30.9595 41.0739 30.5547 41.0739 29.9026C41.0739 29.2505 41.5236 28.8345 42.4343 28.8345C43.2663 28.8345 43.7273 29.2393 44.0308 29.8914C44.0758 29.9813 44.177 30.0151 44.2669 29.9701L45.6048 29.1943C45.6723 29.1493 45.706 29.0594 45.6723 28.9807C45.2675 28.0925 44.3231 27.0244 42.4568 27.0244C40.3768 27.0244 39.0727 28.2611 39.0727 29.8914C39.0727 31.5104 40.1407 32.3536 41.5911 32.8483C42.1195 33.0282 42.3331 33.1069 42.7828 33.253C43.6373 33.5454 44.0308 33.9276 44.0308 34.456C44.0308 34.9845 43.6935 35.6141 42.3669 35.6141C41.1526 35.6141 40.7254 34.9732 40.478 34.3661C40.4443 34.2762 40.3319 34.2312 40.2419 34.2874L38.8366 35.0969C38.7691 35.1419 38.7354 35.2206 38.7691 35.2993C39.3088 36.6259 40.7816 37.413 42.4343 37.413C44.3794 37.413 46.0208 36.4236 46.0208 34.4223C46.0208 32.4211 43.8847 31.679 43.3787 31.5104Z" fill="white"></path><path d="M54.1143 35.3332C54.0693 35.2545 53.9569 35.2208 53.8782 35.277C53.2486 35.7379 52.5065 35.7492 51.9444 34.8835C51.4722 34.1527 50.8988 33.2532 50.8988 33.2532L53.3723 30.1839C53.4622 30.0715 53.3835 29.9141 53.2486 29.9141H51.3148C51.2586 29.9141 51.2136 29.9366 51.1799 29.9815L49.0437 32.916V27.0134C49.0437 26.9234 48.965 26.8447 48.8751 26.8447H47.2448C47.1549 26.8447 47.0762 26.9234 47.0762 27.0134V37.0871C47.0762 37.1771 47.1549 37.2558 47.2448 37.2558H48.8863C48.9762 37.2558 49.0549 37.1771 49.0549 37.0871V33.8154C49.0549 33.8154 50.1455 35.5356 50.5615 36.1764C51.1237 37.0534 51.9107 37.4132 52.7651 37.4132C53.5746 37.4132 54.0918 37.1995 54.7102 36.5924C54.7664 36.5362 54.7776 36.4575 54.7439 36.39L54.1143 35.3332Z" fill="white"></path><path d="M65.8224 33.0168C65.3052 32.8257 65.1253 32.7582 64.7318 32.6121C64.3383 32.4659 63.9898 32.2523 63.9898 31.9375C63.9898 31.6227 64.2821 31.2741 64.878 31.2741C65.3952 31.2741 65.71 31.4765 65.8898 31.8363C65.9348 31.9262 66.036 31.9487 66.1147 31.9037L67.2615 31.2404C67.3402 31.1954 67.3627 31.0943 67.3177 31.0156C67.0029 30.4646 66.3845 29.7676 64.8892 29.7676C63.0566 29.7676 62.1122 30.8244 62.1122 31.9937C62.1122 33.163 63.0678 33.7139 63.9448 34.0624C64.9342 34.4672 65.0016 34.4896 65.1253 34.5346C65.4289 34.6583 65.7999 34.8494 65.7999 35.1979C65.7999 35.5465 65.3951 35.8613 64.7768 35.8613C64.2034 35.8613 63.5513 35.6252 63.2815 34.9618C63.2477 34.8719 63.1353 34.8269 63.0454 34.8831L61.8873 35.5465C61.8199 35.5915 61.7861 35.6702 61.8199 35.7489C62.1572 36.6258 63.1578 37.4016 64.7768 37.4016C66.5307 37.4016 67.7 36.4684 67.7 35.153C67.7 33.8375 66.8005 33.3766 65.8224 33.0168Z" fill="white"></path><path d="M72.408 31.5107C73.1388 31.5107 73.6785 31.7356 74.1844 32.0954C74.2631 32.1516 74.3755 32.1291 74.4205 32.0504L75.0951 30.8811C75.1401 30.8024 75.1176 30.7125 75.0389 30.6675C74.3418 30.1953 73.4761 29.7568 72.3068 29.7568C71.1488 29.7568 70.0807 30.0716 69.3162 30.8474C68.5517 31.6119 68.2031 32.5226 68.2031 33.6019C68.2031 34.9061 68.7428 35.7381 69.3274 36.3228C69.9121 36.9074 70.9689 37.4021 72.3181 37.4021C73.5323 37.4021 74.4318 36.8961 75.0501 36.4914C75.1176 36.4464 75.1401 36.3452 75.0951 36.2778L74.4318 35.1198C74.3868 35.041 74.2743 35.0073 74.1956 35.0635C73.7572 35.3783 73.1276 35.6482 72.4193 35.6482C71.621 35.6482 70.1707 35.1985 70.1707 33.5795C70.1707 31.9605 71.6098 31.5107 72.408 31.5107Z" fill="white"></path><path d="M105.484 35.7831C104.832 35.7831 104.214 35.6257 103.764 35.2659C103.314 34.9061 103.101 34.5351 103.101 34.0966H108.925C109.015 34.0966 109.093 34.0179 109.093 33.928C109.06 32.1966 108.497 31.3871 107.958 30.8362C107.396 30.274 106.44 29.7568 105.181 29.7568C103.922 29.7568 102.955 30.2178 102.291 30.8699C101.639 31.522 101.145 32.354 101.145 33.6132C101.145 34.8724 101.65 35.7044 102.269 36.3228C102.887 36.9411 103.899 37.4021 105.349 37.4021C106.721 37.4021 107.879 36.9186 108.711 35.963C108.779 35.8843 108.756 35.7606 108.666 35.7156L107.508 35.041C107.452 35.0073 107.373 35.0073 107.317 35.0635C106.744 35.6032 106.013 35.7831 105.484 35.7831ZM105.17 31.3309C106.103 31.3309 106.957 31.893 107.092 32.9049H103.168C103.427 31.8143 104.236 31.3309 105.17 31.3309Z" fill="white"></path></svg>