<svg xmlns="http://www.w3.org/2000/svg" width="127" height="64" viewBox="0 0 127 64" fill="none"><path d="M29.3672 29.3333H39.5604V24H29.3672V29.3333Z" fill="white"></path><path d="M8.99805 24V29.3333H14.0856V40H19.1731V29.3333H24.2788V24H8.99805Z" fill="white"></path><path d="M24.2793 40.0002H39.56V34.6668H29.3668V29.3335H24.2793V40.0002Z" fill="white"></path><path d="M52.5504 28.0278H45.0645V30.2469H47.5719V37.2027H50.0429V30.2469H52.5504V28.0278Z" fill="white"></path><path d="M55.3676 30.1724C53.6051 30.1724 52.2969 31.3845 52.2969 33.7714C52.2969 35.8787 53.4052 37.3519 55.4221 37.3519C56.4759 37.3519 57.3299 37.0721 58.1475 36.5686L57.2754 35.0581C56.6031 35.4125 56.1307 35.543 55.5311 35.543C54.9315 35.543 54.4772 35.2073 54.3864 34.4428H58.3292C58.3474 34.3309 58.3474 34.1817 58.3474 33.9766C58.3656 31.4218 57.2209 30.1724 55.3676 30.1724ZM54.4227 32.9696C54.4954 32.2796 54.7861 31.9253 55.313 31.9253C55.9853 31.9253 56.2215 32.2796 56.3305 32.9696H54.4227Z" fill="white"></path><path d="M62.7258 35.4311C62.108 35.4311 61.781 34.8717 61.781 33.7714C61.781 32.6712 62.0717 32.0745 62.6713 32.0745C63.1619 32.0745 63.3799 32.3542 63.707 32.9696L65.2877 31.7388C64.7063 30.7691 63.9795 30.1724 62.7076 30.1724C60.5636 30.1724 59.5098 31.6269 59.5098 33.7341C59.5098 36.0465 60.6908 37.3332 62.6531 37.3332C63.8342 37.3332 64.5609 36.867 65.3422 35.6922L63.8887 34.5174C63.4526 35.1887 63.1619 35.4311 62.7258 35.4311Z" fill="white"></path><path d="M70.6477 30.1723C69.8483 30.1723 69.3758 30.452 68.9579 30.769V27.6548L66.6504 28.6058V37.2212H68.9579V33.2865C68.9579 32.4287 69.2487 32.1863 69.7392 32.1863C70.2298 32.1863 70.5024 32.4287 70.5024 33.3051V37.2212H72.8099V33.0068C72.8099 31.1979 72.1013 30.1723 70.6477 30.1723Z" fill="white"></path><path d="M78.3505 35.133C77.2785 35.133 76.8424 34.0141 76.8424 32.6155C76.8424 31.2169 77.2966 30.098 78.3323 30.098C79.15 30.098 79.4588 30.6388 79.7677 31.4966L82.0208 30.5829C81.403 28.8486 80.5309 27.8789 78.3323 27.8789C75.9339 27.8789 74.2441 29.6691 74.2441 32.6155C74.2441 35.3381 75.6614 37.3521 78.3142 37.3521C80.44 37.3521 81.4393 36.1773 82.0389 34.9838L79.9494 33.8463C79.4588 34.7041 79.1318 35.133 78.3505 35.133Z" fill="white"></path><path d="M85.747 30.825V30.3215H83.4395V37.2027H85.747V33.4544C85.747 32.6153 86.0922 32.3355 86.6555 32.3355C87.1097 32.3355 87.4368 32.578 87.7275 32.9136L88.2726 30.4707C88 30.3029 87.673 30.1724 87.1824 30.1724C86.5828 30.1724 86.1286 30.4334 85.747 30.825Z" fill="white"></path><path d="M93.1971 34.256C93.1971 35.1138 92.9064 35.3563 92.434 35.3563C91.9616 35.3563 91.6708 35.1138 91.6708 34.2374V30.3213H89.3633V34.5357C89.3633 36.3446 90.0719 37.3516 91.5436 37.3516C92.3249 37.3516 92.8155 37.0719 93.2153 36.7549V37.2211H95.5228V30.3399H93.2153V34.256" fill="white"></path><path d="M101.173 30.1724C100.374 30.1724 99.9012 30.4521 99.4833 30.7691V30.3029H97.1758V37.184H99.4833V33.2493C99.4833 32.3915 99.774 32.1491 100.265 32.1491C100.755 32.1491 101.028 32.3915 101.028 33.2679V37.184H103.335V32.9696C103.335 31.198 102.645 30.1724 101.173 30.1724Z" fill="white"></path><path d="M107.914 35.4311C107.296 35.4311 106.969 34.8717 106.969 33.7714C106.969 32.6712 107.26 32.0745 107.841 32.0745C108.332 32.0745 108.55 32.3542 108.877 32.9696L110.458 31.7388C109.876 30.7691 109.149 30.1724 107.878 30.1724C105.734 30.1724 104.68 31.6269 104.68 33.7341C104.68 36.0465 105.861 37.3332 107.823 37.3332C109.004 37.3332 109.731 36.867 110.512 35.6922L109.059 34.5174C108.659 35.1887 108.35 35.4311 107.914 35.4311Z" fill="white"></path><path d="M115.837 30.1723C115.038 30.1723 114.565 30.452 114.147 30.769V27.6548L111.84 28.6058V37.2212H114.147V33.2865C114.147 32.4287 114.438 32.1863 114.929 32.1863C115.419 32.1863 115.692 32.4287 115.692 33.3051V37.2212H117.999V33.0068C118.018 31.1979 117.309 30.1723 115.837 30.1723Z" fill="white"></path></svg>